Coordinates
version=1
nRows=43
nColumns=12
inDegrees=yes

Units are S.I. units (second, meters, Newtons, ...)
Angles are in degrees

endheader
time	SC_y	SC_z	SC_x	AC_y	AC_z	AC_x	GH_y	GH_z	GH_yy	EL_x	PS_y
       0.0               -57.4           33.7          15.94           67.8          -10.8         -15.75          63.19         -15.64          179.1          9.406          28.44
   0.02231               -57.4           33.7          15.95           67.8          -10.8         -15.75          63.19         -15.63          179.1          9.409          28.45
   0.04461              -57.39          33.69          15.95           67.8         -10.79         -15.75          63.18         -15.63          179.0          9.413          28.46
   0.06692              -57.39          33.69          15.96           67.8         -10.79         -15.74          63.17         -15.62          179.0          9.418          28.46
   0.08922              -57.38          33.68          15.97           67.8         -10.79         -15.74          63.17         -15.61          179.0          9.422          28.47
    0.1115              -57.38          33.67          15.97           67.8         -10.79         -15.74          63.16          -15.6          179.0          9.427          28.49
    0.1338              -57.37          33.67          15.98           67.8         -10.79         -15.74          63.15         -15.59          178.9          9.432           28.5
    0.1561              -57.37          33.66          15.99           67.8         -10.78         -15.74          63.14         -15.57          178.9          9.437          28.51
    0.1784              -57.36          33.65          15.99           67.8         -10.78         -15.73          63.13         -15.56          178.9          9.443          28.52
    0.2007              -57.35          33.64           16.0           67.8         -10.78         -15.73          63.12         -15.55          178.8           9.45          28.54
    0.2231              -57.34          33.63          16.01           67.8         -10.78         -15.73          63.11         -15.53          178.8          9.456          28.55
    0.2454              -57.34          33.62          16.02           67.8         -10.77         -15.73           63.1         -15.52          178.8          9.464          28.57
    0.2677              -57.33          33.61          16.03           67.8         -10.77         -15.72          63.09          -15.5          178.7          9.471          28.59
      0.29              -57.32          33.59          16.04           67.8         -10.77         -15.72          63.08         -15.48          178.7           9.48          28.61
    0.3123              -57.31          33.58          16.05           67.8         -10.76         -15.72          63.06         -15.46          178.6          9.489          28.63
    0.3346              -57.29          33.57          16.07           67.8         -10.76         -15.71          63.05         -15.44          178.6          9.499          28.65
    0.3569              -57.28          33.55          16.08           67.8         -10.75         -15.71          63.03         -15.42          178.5           9.51          28.67
    0.3792              -57.27          33.53           16.1           67.8         -10.75          -15.7          63.01         -15.39          178.4          9.521           28.7
    0.4015              -57.25          33.51          16.11           67.8         -10.74          -15.7          62.99         -15.36          178.4          9.534          28.73
    0.4238              -57.24          33.49          16.13           67.8         -10.74         -15.69          62.97         -15.33          178.3          9.548          28.76
    0.4461              -57.22          33.47          16.15           67.8         -10.73         -15.69          62.95          -15.3          178.2          9.563           28.8
    0.4684               -57.2          33.44          16.18           67.8         -10.72         -15.68          62.92         -15.26          178.1           9.58          28.83
    0.4907              -57.18          33.42           16.2           67.8         -10.72         -15.67          62.89         -15.22          178.0          9.599          28.88
     0.513              -57.15          33.39          16.23           67.8         -10.71         -15.67          62.86         -15.18          177.9           9.62          28.92
    0.5353              -57.13          33.35          16.26           67.8          -10.7         -15.66          62.82         -15.13          177.8          9.643          28.98
    0.5576               -57.1          33.31          16.29           67.8         -10.69         -15.65          62.78         -15.07          177.6          9.669          29.03
    0.5799              -57.06          33.27          16.33           67.8         -10.68         -15.64          62.74         -15.01          177.5          9.697           29.1
    0.6022              -57.03          33.22          16.38           67.8         -10.66         -15.63          62.69         -14.94          177.3           9.73          29.17
    0.6246              -56.98          33.17          16.42          67.79         -10.65         -15.61          62.63         -14.86          177.1          9.766          29.26
    0.6469              -56.94          33.11          16.48          67.79         -10.63          -15.6          62.56         -14.77          176.9          9.808          29.35
    0.6692              -56.88          33.04          16.54          67.79         -10.61         -15.58          62.49         -14.66          176.6          9.856          29.46
    0.6915              -56.82          32.95          16.61          67.79         -10.59         -15.56           62.4         -14.55          176.3           9.91          29.58
    0.7138              -56.74          32.86           16.7          67.79         -10.56         -15.53           62.3         -14.41          175.9          9.973          29.72
    0.7361              -56.66          32.75           16.8          67.79         -10.53         -15.51          62.19         -14.25          175.5          10.05          29.89
    0.7584              -56.56          32.63          16.91          67.79         -10.49         -15.47          62.06         -14.06          175.1          10.13          30.08
    0.7807              -56.44          32.48          17.04          67.78         -10.45         -15.44           61.9         -13.85          174.5          10.23          30.31
     0.803               -56.3           32.3           17.2          67.78          -10.4         -15.39          61.71         -13.59          173.8          10.35          30.58
    0.8253              -56.14          32.08          17.39          67.78         -10.34         -15.34          61.48         -13.27          173.1           10.5          30.91
    0.8476              -55.94          31.83          17.62          67.77         -10.27         -15.27          61.21          -12.9          172.1          10.67           31.3
    0.8699              -55.69          31.51          17.91          67.77         -10.18         -15.19          60.88         -12.43          170.9          10.88          31.78
    0.8922              -55.39          31.12          18.26          67.76         -10.07         -15.09          60.47         -11.86          169.5          11.14          32.37
    0.9145              -55.01          30.64          18.69          67.75         -9.934         -14.97          59.96         -11.15          167.7          11.47          33.11
    0.9368              -54.53          30.02          19.24          67.74         -9.762         -14.81          59.31         -10.26          165.4          11.88          34.04
